<?xml version="1.0" encoding="UTF-8"?>
<svg id="Layer_1" data-name="Layer 1" xmlns="http://www.w3.org/2000/svg" viewBox="0 0 261.71 171.44">
  <defs>
    <style>
      .cls-1 {
        fill: #fff;
      }
    </style>
  </defs>
  <polygon class="cls-1" points="253.25 148.8 243.56 151.56 234.85 164.45 253.15 168.37 259.59 162.63 259.12 155.13 253.25 148.8"/>
  <polygon class="cls-1" points="261.71 137.12 260.21 132.34 255.39 129.18 249.55 132.52 245.97 142.27 258.46 141.88 261.71 137.12"/>
  <path class="cls-1" d="M201.63,90.92c-3.71-12.12-14.9-20.71-27.96-20.71-5.56,0-10.91,1.58-15.62,4.61-7.35-2.36-16.36-10.92-24.85-22.81L106.91,0l-37.44,74.13-16.11-20.83L0,170.12h155.88c7.54,1.13,14.16,1.31,17.68,1.31,11.75,0,22.74-1.68,30.15-4.59,27.13-10.68,31.18-30.26,31.18-40.98,0-18.71-14.76-34.04-33.26-34.94ZM40.16,132.15l15.2-64.75,4.18,26.39-19.38,38.37ZM99.94,158.31l-14.72-11.57-4.2-37.83,26.67,31.93-7.75,17.47ZM199.37,155.8c-6,2.36-15.64,3.77-25.81,3.77-20.61,0-37.77-5.29-43.69-13.46-1.86-2.56-2.57-5.49-2.22-8.81.51-2.5,1.85-4.82,4.02-6.41,3.6-2.63,8.5-2.7,12.19-.18,2.72,1.86,6.39,1.15,8.25-1.54,1.83-2.7,1.16-6.4-1.54-8.25-6.12-4.18-13.78-4.95-20.49-2.46-1.06-9.7-6.16-17.86-11.25-25.78-9.19-14.31-19.45-30.27-11.15-61.16,9.7,20.57,24.87,43.66,41.4,52.26-.57.9-1.23,1.74-1.72,2.7-1.47,2.93-.28,6.48,2.65,7.95,2.94,1.49,6.5.29,7.96-2.65,3.01-6,9.02-9.73,15.72-9.73,7.06,0,13.16,4.27,15.87,10.48-5.71,1.78-10.96,4.94-15.13,9.35-2.24,2.39-2.13,6.14.25,8.38,2.36,2.24,6.13,2.14,8.38-.26,4.43-4.69,10.42-7.28,16.87-7.28,12.74,0,23.11,10.37,23.11,23.12,0,13.69-7.95,23.76-23.66,29.94Z"/>
</svg>