<?xml version="1.0" encoding="UTF-8"?>
<svg id="Layer_1" data-name="Layer 1" xmlns="http://www.w3.org/2000/svg" viewBox="0 0 187.4 187.4">
  <defs>
    <style>
      .cls-1 {
        fill: #fff;
      }
    </style>
  </defs>
  <path class="cls-1" d="M185.93,147.11l-5.4-4.83c-2.74-2.45-6.27-3.8-9.94-3.8h-7.04l-4.99-1.96c-5.71-2.24-12.11-.8-16.31,3.67l-13.95,14.82c-.31-.06-.62-.11-.93-.14l-3.19-25.15c-.06-.51-.23-1-.48-1.45l-12.2-21.45c-.3-.52-.7-.97-1.21-1.31l-10.26-6.95c-1.35-.92-3.13-.9-4.46.05l-11.77,8.35c-.56.4-1.02.95-1.3,1.58l-6.87,15.18c-.19.43-.46.82-.8,1.15l-9.77,9.77c-.56.56-.94,1.29-1.08,2.07l-3.78,20.99-5.18-1.36c-1.57-.41-3.18-.57-4.76-.49l-4.71-6.31c-2.29-3.06-5.59-5.17-9.32-5.96l-12.49-2.63c-3.64-.77-7.45-.2-10.72,1.57l-11.71,6.39,5.53-46.57c.1-.87.49-1.68,1.11-2.31l21.12-21.3c.45-.45.77-.99.96-1.59l8.05-25.77c.28-.91.89-1.69,1.71-2.18l24.55-14.89c.63-.38,1.13-.93,1.46-1.59l10.47-20.72c.36-.72.94-1.31,1.64-1.69L96.23.48c1.08-.59,2.37-.63,3.49-.13l26.99,12.26c.7.32,1.31.85,1.71,1.5l14.32,23.09c.2.32.45.62.73.87l15.93,14.2c.63.56,1.07,1.32,1.24,2.15l4.68,23.1c.08.37.2.72.38,1.05l15.57,29.61c.23.43.38.9.43,1.39l4.23,37.53Z"/>
  <path class="cls-1" d="M39.45,160.98l-3.32,3.37-1.96,1.99c-3.42,3.47-4.94,8.14-4.44,12.7l-8.08-1.51c-.49-.09-.98-.09-1.46,0l-15.53,3.01c-2.72.53-5.12-1.86-4.59-4.59l2.32-11.92.15-.77c.23-1.15.95-2.14,1.97-2.69l14.16-7.72c.81-.45,1.77-.59,2.68-.39l12.49,2.63c.93.2,1.76.72,2.33,1.49l3.29,4.41Z"/>
  <path class="cls-1" d="M42.01,179.42l3.92,6.17c.81,1.28,2.29,1.98,3.8,1.78l11.39-1.45c1.62-.21,2.93-1.39,3.31-2.97l1.8-7.57c.49-2.07-.76-4.15-2.81-4.69l-11.35-2.98c-1.35-.36-2.79.04-3.78,1.04l-5.76,5.83c-1.28,1.3-1.5,3.31-.52,4.85Z"/>
  <path class="cls-1" d="M186.85,173.58l-4.4,6.48c-.84,1.23-2.41,1.72-3.8,1.17l-12.87-5.06c-.37-.15-.76-.23-1.16-.23h-13.77l-1.46-7.54c-.28-1.45-.78-2.82-1.46-4.07-1.46-2.68-3.75-4.82-6.54-6.1l9.41-10c.89-.95,2.27-1.26,3.48-.78l6.48,2.54c.38.14.77.22,1.17.22h8.66c.77,0,1.53.29,2.11.81l10.22,9.13c.38.34.68.78.86,1.27l.99,2.68,2.43,6.57c.35.96.23,2.04-.35,2.89Z"/>
  <path class="cls-1" d="M136.04,168.75l-9.65-2.16c-.87-.19-1.77.1-2.35.78l-6.85,7.93c-.38.44-.59,1-.59,1.57v8.12c0,1.33,1.08,2.41,2.41,2.41h19.2c1.51,0,2.65-1.38,2.36-2.87l-2.69-13.89c-.18-.94-.9-1.68-1.84-1.89Z"/>
</svg>