<?xml version="1.0" encoding="UTF-8"?>
<svg id="Layer_1" data-name="Layer 1" xmlns="http://www.w3.org/2000/svg" viewBox="0 0 217.57 181.68">
  <defs>
    <style>
      .cls-1 {
        fill: #fff;
      }

      .cls-2 {
        fill: none;
      }
    </style>
  </defs>
  <path class="cls-2" d="M141.13,13.36c0-1.24-1.01-2.25-2.25-2.25h-60.21c-1.24,0-2.25,1.01-2.25,2.25v11.34h64.7v-11.34Z"/>
  <path class="cls-1" d="M194.53,24.71h-10.82v156.97h10.82c12.73,0,23.05-10.32,23.05-23.05V47.76c0-12.73-10.32-23.05-23.05-23.05Z"/>
  <path class="cls-1" d="M0,47.76v110.87c0,12.73,10.32,23.05,23.05,23.05h10.82V24.71h-10.82C10.32,24.71,0,35.03,0,47.76Z"/>
  <path class="cls-1" d="M152.25,11.12h0c0-6.14-4.98-11.12-11.12-11.12h-64.7c-6.14,0-11.12,4.98-11.12,11.12h0v13.59h-19.62v156.97h126.18V24.71h-19.62v-13.59ZM76.44,13.36c0-1.24,1.01-2.25,2.25-2.25h60.21c1.24,0,2.25,1.01,2.25,2.25v11.34h-64.7v-11.34ZM148.19,115.35h-27.24v27.24h-24.32v-27.24h-27.24v-24.32h27.24v-27.24h24.32v27.24h27.24v24.32Z"/>
</svg>