<?xml version="1.0" encoding="UTF-8"?>
<svg id="Layer_1" data-name="Layer 1" xmlns="http://www.w3.org/2000/svg" viewBox="0 0 255.74 154.48">
  <defs>
    <style>
      .cls-1 {
        fill: #fff;
      }
    </style>
  </defs>
  <path class="cls-1" d="M222.04,48.47c-7.2-1.16-28.86,4.3-28.86,4.3,0,0-4.07-4.01-5.79-4.74-1.63-.69-5.27-1.05-7.02-.8-1.56.22-3.53.65-5.75,1.22l-2.21-4.09L255.74,8.7l-3.86-8.7-80.91,41.44-1.74-3.26c-3-2.67-4.69,1.42-4.69,1.42l-.18,4.01-88.68,16.31,1.71,9.82,86.98-23.18-.37,4.98c-12.47,3.94-26.13,9.04-26.13,9.04l1.83,7.53-1.42,3.42-17.12,4.36c-.28,4.88,4.28,8.17,4.28,8.17l8.22-1.42-1.36,3.27-100.05,36.23-25.4-28.64-6.84,3.59,20.56,34.24-5.92,3.1,1.55,2.96,8-1.37,2.11,17.05,8.06,1.43,3.31-22.01,104.23-22.86,8.95,4.03s9.23-2.42,21.91-5.83l-1.33,13.77-13.94,4.06c-2.19.64-3.45,2.93-2.82,5.13.64,2.19,2.93,3.45,5.13,2.82l63.6-18.5s.02,0,.03,0l11.43-3.32c1.03-.3,3.79-1.19,6.72-2.72,4.02-2.11,8.35-5.45,8.84-10.21.24-2.27-1.41-4.31-3.68-4.55-2.27-.24-4.31,1.41-4.55,3.68-.16,1.55-4.95,4.45-9.66,5.85l-8.17,2.38-5.83-11.11c12.66-3.7,22.84-6.92,25.64-8.47,8.96-4.94,12.41-15,10.37-18.88-2.04-3.88-23.18-17.75-32.5-19.25ZM179.98,119.09l1.32-13.59c9.29-2.53,19.58-5.36,29.12-8.09l5.84,11.13-36.27,10.55ZM213.06,74.87l-10.08,3.56-6.32-14.4,7.87-2.87s11.03-4.41,14.84-3.95c5.29.64,18.69,10.23,18.69,10.23l-25.01,7.43Z"/>
</svg>