<?xml version="1.0" encoding="UTF-8"?>
<svg id="Layer_1" data-name="Layer 1" xmlns="http://www.w3.org/2000/svg" viewBox="0 0 189.86 220.89">
  <defs>
    <style>
      .cls-1 {
        fill: #fff;
      }
    </style>
  </defs>
  <path class="cls-1" d="M145.15,164.66c-4.26.64-8.5,1.41-12.16,1.83-2.1.24-3.67-.74-4.26-1.59-4.66-6.82-14.06-18.71-17.52-23.73-2.01-2.92-5.53-5.35-8.12-5.79-4.57-.79-23.96-3.61-34.22-4.85V0h-5.2v43.9c-.14.02-.28.02-.42.05-6.34,1.18-9.92,8.53-9.97,12.11-.06,4.94-2.9,11.82-4.54,17.57-.55,1.93-.82,2.34-1.24,3.04-2.46,4.05-6.81,8.95-10.01,11.47-1.85,1.46-7.34,4.79-8.25,5.28-3.2,1.7-7.09,3.12-9.36,7.44-.68,1.3-1.9,4.04-3.57,9.41-1.21,3.89-5.67,15.55-6.71,20.17-.18.8-1.3,4.84.33,8.38,2.98,6.49,10,14.95,11.47,17.87,1.6,3.2-1.05,4.15,3.05,9.12.23.28.48.51.73.72v54.34h5.2v-54.49c4.08,2.17,8.96,3.31,13.8,3.31,3.24,0,6.47-.51,9.41-1.56,4.82-1.72,11.09-5.6,14.5-14.38.15,0,.31-.01.46-.01,14.95-.43,21.45-1.53,26.28-1.19,1.39.1,4.27.27,5.61,1.32,7.77,6.04,17.77,16.5,23.96,22.66,1.03,1.02,2.44,2.7,4.23,3.84,2.68,1.7,14.78-6.78,18.63-9.52,2.53-1.8,2-6.81-2.09-6.2ZM51.82,163.25c-7.55,2.69-15.91.69-20.5-2.3-.91-3.05-3.27-5.91-3.62-6.92-2.38-6.92-4.11-9.74-7.01-16.97-.75-1.88-.8-2.79.09-5.85.46-1.59,1.84-5.64,4.06-10.87.92-2.16,2.22-1.3,3.39.13,4.4,5.39,14.8,23.75,19.09,28.76,2.98,3.48,9.14,4.4,15.03,4.56-2.28,4.54-5.85,7.79-10.52,9.46ZM63.66,129.95c-2.47-.33-3.96-3.08-4.86-5.05-1.47-3.21-5.25-9.71-9.07-20.24-.39-1.07-1.4-4.45.76-8.37,2.74-4.99,5.62-10.16,7.72-14.02,1.52-2.81,2.3-5.1,3.08-9.58,1.01-5.78.43-9.47.19-14.96-.04-.96-.1-2.29.84-2.85.42-.25.85-.5,1.35-.85v75.91Z"/>
  <path class="cls-1" d="M10.23,91.15c1,.3,2.46-1.53,2.75-2.65,2.68,1.41,6.46,3.03,9.76,3.12,3.7.09,9.89-5.62,12.13-8.5,3.03-3.88-.59-4.84-2.93-9.3.86-1.08,1.09-2.29.53-3.11-.78-1.15-3.73-1.69-4.51-2.51-1.34-1.38-3.12-2.96-4.8-3.59,4.24-5.89,1.5-7.35-1.92-5.91-1.08.45-2.88.7-4.38.51-7.77-.99-11.69,2.17-14.48,7.41-1.99,3.74-3.5,9.33-1.3,14.34,1.02,2.34,3.42,3.76,5.91,6.23,1.57,1.57,1.41,3.4,3.24,3.96Z"/>
  <polygon class="cls-1" points="101.72 35.13 128.84 52.64 133.85 82.73 152.23 103.13 162.48 147.87 149.6 188.68 159.7 220.89 189.86 220.89 189.86 0 101.72 0 101.72 35.13"/>
</svg>