<?xml version="1.0" encoding="UTF-8"?>
<svg id="Layer_1" data-name="Layer 1" xmlns="http://www.w3.org/2000/svg" viewBox="0 0 137.53 245.87">
  <defs>
    <style>
      .cls-1 {
        fill: #fff;
      }
    </style>
  </defs>
  <path class="cls-1" d="M115.77,209.35c-3.86,11.64-15.13,14.24-22.87,13.65,2.59-1.82,2.86-4.81,1.54-7.67-1.59-3.41-5.12-3.9-6.14-6.12-1.21-2.6.86-5.6-.56-8.55-1.58-3.3-4.79-3.1-6.01-5.86-1.44-3.21.95-4.86-.93-8.93-1.47-3.14-4.66-3.02-6.08-6.08-1.3-2.8.55-5.59-.62-8.41-1.65-4.01-4.89-3.48-6.55-7.04-1.32-2.79,1.79-6.46.28-9.7-1.37-2.95-3.63-3.61-6.62-2.22-1.31.61-19.29,9.19-20.59,9.8-2.99,1.39-3.96,3.54-2.58,6.49,1.5,3.24,7.88,2.4,10.58,8.24,4.82,10.38,4.88,27.55,10.81,41.42,4.35,10.19,13.22,11.89,16.94,11.87-.87,2.03-1.16,4.33-.68,6.66,1.25,6.07,7.19,9.98,13.25,8.73,5.79-1.19,9.6-6.65,8.86-12.41,13.55-3.19,20-14.34,20.13-22.67.06-3.21-1.43-3.48-2.18-1.2ZM87.86,240.35c-3.15.65-6.22-1.38-6.87-4.53-.65-3.15,1.38-6.22,4.53-6.87,3.14-.65,6.22,1.38,6.87,4.53.65,3.15-1.38,6.23-4.53,6.87Z"/>
  <path class="cls-1" d="M131.47,37.11c-17.5.82-31.33-9.06-42.14-22.78-2.62-3.34-5.49-5.89-9.17-6.96C72.11,5.04,52.29.07,46,0c-5.75-.06-9.06,1.36-11.21,6.55-1.4-.32-17.74-3.46-25.28-4.13-3.46-.31-5.39,1.02-5.58,3.46-.46,5.65-1.76,10.14-3.81,16.93-.65,2.18,1.4,4.49,3.58,6.27,4.84,3.98,7.71,5.98,11.21,8.77,1.52,1.22,2.36,2.89,1.49,8.48-6.29,40.33,10.73,76.94,23.49,106.66,3.01-1.21,13.68-6.27,16.01-7.74-19.57-42.97-27.36-70.9-19.13-103.65.91-3.62,4.2-6.52,7.08-7.86,1.29-.6,2.54-6.25,4.16-6.51,1.62-.24,2.31,5.52,4.22,5.56,1.28.03,3.55-5.41,4.94-5.23,1.28.17,1.7,5.79,3.08,5.99,1.45.21,3.84-4.82,5.36-4.49,1.25.27,1.65,5.71,2.94,5.98,1.42.29,3.72-4.45,5.19-4.09,1.36.33,1.92,5.59,3.33,5.9,1.36.3,3.52-4.18,4.91-3.84,1.32.33,1.88,5.33,3.24,5.62,1.24.26,3.21-4.04,4.47-3.75,1.17.28,1.64,4.99,2.82,5.21,1.33.25,3.36-3.83,4.69-3.56,1.3.27,1.96,4.74,3.29,4.94,10.33,1.56,20.76,2.16,30.31.28,7.11-1.4,10.37-5.12.67-4.66ZM28.86,17.66c-.61,1.61-1.81,4.83-2.42,6.43-.63,1.66-2.48,2.5-4.14,1.87-1.61-.6-11.44-2.64-13.13-2.94-1.75-.31-2.91-1.98-2.6-3.72.3-1.69.9-5.08,1.2-6.77.31-1.75,1.97-2.91,3.72-2.6,1.69.3,13.89,2.98,15.49,3.59,1.66.62,2.49,2.48,1.88,4.14Z"/>
</svg>