<?xml version="1.0" encoding="UTF-8"?>
<svg id="Layer_1" data-name="Layer 1" xmlns="http://www.w3.org/2000/svg" viewBox="0 0 123.27 245.45">
  <defs>
    <style>
      .cls-1 {
        fill: #fff;
      }
    </style>
  </defs>
  <path class="cls-1" d="M66.2,110.66c0-3.36-2.6-6.08-5.8-6.08H14.9c-3.2,0-5.8,2.72-5.8,6.08s2.59,6.08,5.8,6.08c-3.2,0-5.8,2.72-5.8,6.08s2.59,6.08,5.8,6.08c-3.2,0-5.8,2.72-5.8,6.08s2.59,6.08,5.8,6.08h45.51c3.19,0,5.8-2.72,5.8-6.08s-2.6-6.08-5.8-6.08c3.19,0,5.8-2.72,5.8-6.08s-2.6-6.08-5.8-6.08c3.19,0,5.8-2.72,5.8-6.08Z"/>
  <path class="cls-1" d="M59.51,148.09h-11.58c0,11.82,3.14,21.57,6.18,31.01,2.77,8.62,5.4,16.76,5.4,25.95,0,6.53-2.17,11.68-5.22,15.02.73-3.26,1.15-6.73,1.15-10.34,0-11.73-2.46-21.72-4.83-31.38-2.4-9.79-4.69-19.05-4.69-30.26h-16.11c0,10.27-2.48,19.7-4.86,28.83-2.37,9.03-4.82,18.37-4.82,28.35,0,13.7,6.63,22.33,13.75,26.83-1.89,1.14-3.96,1.77-6.16,1.77-7.45,0-16.14-6-16.14-22.89,0-8.98,3.55-17.95,7.31-27.44,4.34-10.97,8.83-22.31,8.83-35.45h-11.59c0,10.93-4.08,21.23-8.02,31.19-3.99,10.08-8.12,20.51-8.12,31.7,0,23.69,14.36,34.48,27.72,34.48,7.44,0,14.09-3.63,19.02-9.58,12.17-.67,24.35-12.07,24.35-30.83,0-11-3.03-20.41-5.95-29.5-2.89-8.98-5.63-17.47-5.63-27.46ZM41.24,223.04c-4.29-2.22-9.52-7.54-9.52-17.78,0-8.49,2.16-16.71,4.43-25.41.5-1.93,1.01-3.87,1.5-5.84.55,2.4,1.13,4.76,1.71,7.1,2.31,9.41,4.5,18.3,4.5,28.62,0,4.96-.96,9.52-2.61,13.31Z"/>
  <path class="cls-1" d="M114.83,188.52c-16.88,1.04-21.56-7.38-27.49-18.05-5.05-9.09-10.78-19.38-24.7-22.33-1.39,4.42,1.06,12.31,2.5,13.08,5.08,2.71,8.11,7.74,12.08,14.87,6.31,11.34,14.16,25.47,38.33,23.98.58-.03,1.13-.15,1.64-.34,2.34-.86,3.95-3.18,3.78-5.79-.19-3.19-2.94-5.62-6.14-5.43Z"/>
  <path class="cls-1" d="M95.29,75.18c-12.47-2.44-26.23,4.79-29.12,6.94-2.53,3.98-3.82,13.22-2.47,14.86,6.15-6.02,17.87-12.37,29.67-10.39,7.25,1.22,13.72,6.29,19.19,15.09,1.69,2.72,5.26,3.54,7.98,1.85,2.71-1.69,3.53-5.27,1.85-7.98-7.31-11.73-16.49-18.3-27.11-20.37Z"/>
  <path class="cls-1" d="M16.13,97.37h11.59c0-12.68-4.24-22.86-8.34-32.7-4.01-9.64-7.8-18.75-7.8-30.19,0-9.12,3.71-14.68,6.83-17.74,3.7-3.64,8.16-5.21,10.85-5.16,1.67.04,3.59.88,5.47,2.38-7.56,3.59-14.6,11.68-14.6,26.23,0,9.98,2.45,19.32,4.82,28.35,2.39,9.12,4.86,18.55,4.86,28.83h16.11c0-11.22,2.28-20.47,4.69-30.26,2.37-9.67,4.83-19.66,4.83-31.38,0-2.94-.3-5.82-.85-8.6,3.43,2.93,6.17,7.83,6.17,15.63,0,9.03-2.88,16.55-5.91,24.51-3.4,8.91-6.91,18.13-6.91,30.11h11.58c0-9.84,2.99-17.68,6.15-25.98,3.28-8.6,6.67-17.48,6.67-28.64,0-18.22-11.71-28.84-23.94-30.74C43.58,4.85,36.77.15,29.49,0c-6.51-.13-13.65,3.04-19.18,8.47C5.6,13.08,0,21.33,0,34.48s4.41,24.37,8.69,34.64c3.83,9.2,7.44,17.89,7.44,28.25ZM41.6,23.71c1.38,3.44,2.25,7.49,2.25,12.01,0,10.32-2.19,19.21-4.5,28.62-.57,2.34-1.16,4.7-1.71,7.1-.49-1.97-1-3.91-1.5-5.84-2.27-8.7-4.43-16.92-4.43-25.41,0-11.87,6.12-15.41,9.88-16.48Z"/>
</svg>