<?xml version="1.0" encoding="UTF-8"?>
<svg id="Layer_1" data-name="Layer 1" xmlns="http://www.w3.org/2000/svg" viewBox="0 0 100.05 235.9">
  <defs>
    <style>
      .cls-1 {
        fill: #fff;
      }
    </style>
  </defs>
  <path class="cls-1" d="M79.75,56.92c-.26-5.97-.85-10.5-1.33-13.34l17.31-5.51c1.29,4.49,2.31,9.23,3.04,14.13l-19.02,4.73Z"/>
  <path class="cls-1" d="M42.15,28.96l-14.32-11.22c.95-1.28,1.94-2.55,2.98-3.8C42.25.18,54.36-.98,62.49.49c12.79,2.29,24.58,12.93,29.36,26.46.12.33.3.79.53,1.39.22.57.5,1.27.81,2.1l-17.09,5.44c-2.03-3.55-7.86-12.31-16.69-13.76-5.78-.95-11.57,1.36-17.26,6.85Z"/>
  <path class="cls-1" d="M99.67,60.25c.33,4.2.44,8.55.34,12.96l-20.7,3.18c.31-3.76.49-7.52.54-11.22l19.82-4.92Z"/>
  <path class="cls-1" d="M6.33,83c.13-5.66.62-11.26,1.46-16.72l18.22,4.51c-.29,3.86-.43,7.95-.41,12.21H6.33Z"/>
  <path class="cls-1" d="M99.57,81.41c-.42,4.95-1.12,10-2.09,15.08l-20.04-5.28c.38-2.25.71-4.45.98-6.56l21.14-3.25Z"/>
  <path class="cls-1" d="M9.28,58.37c1.1-4.88,2.53-9.69,4.25-14.36l16.02,6.27c-1.13,3.79-2.03,7.96-2.67,12.44l-17.6-4.36Z"/>
  <path class="cls-1" d="M16.61,36.59c1.97-4.29,4.19-8.39,6.62-12.23l13.61,10.66c-1.67,2.25-3.17,4.85-4.49,7.73l-15.74-6.16Z"/>
  <path class="cls-1" d="M14.52,127.55c-.7-.62-2.69-4.15-4.63-11.6l17.73-4.4c1.13,8.77,2.45,15.74,3.2,19.39l-16.3-3.39Z"/>
  <path class="cls-1" d="M25.8,91.03c.18,4.05.48,8.23.9,12.46l-18.53,4.6c-.95-5.41-1.56-11.23-1.79-17.06h19.41Z"/>
  <path class="cls-1" d="M95.79,104.36c-1.22,5.01-2.76,10.2-4.58,15.46l-17.96-9.47c1.01-3.76,1.92-7.52,2.7-11.22l19.84,5.23Z"/>
  <path class="cls-1" d="M88.41,127.43c-1.9,4.83-4.01,9.65-6.28,14.34-5.38-1.16-11.71-2.51-18.29-3.91,2.68-6.47,5.07-13.06,7.12-19.64l17.45,9.2Z"/>
  <path class="cls-1" d="M55.89,76.09l1.28-10.39,14.85,11.17c-.36,3.56-.86,7.26-1.52,11.05l-14.61-11.83Z"/>
  <path class="cls-1" d="M35.86,101.17c-.25-2.05-.49-4.21-.7-6.45l11.91-7.59-1.35,10.51-9.85,3.53Z"/>
  <path class="cls-1" d="M58.34,56.47l1.12-8.99,13,8.64c.24,3.57.3,7.29.19,11.12l-14.31-10.77Z"/>
  <path class="cls-1" d="M42.43,41.22c.26-.38.52-.75.79-1.1,3.73-4.91,7.42-7.84,11-8.75l-.86,6.72-10.93,3.13Z"/>
  <path class="cls-1" d="M70.24,42.06c.13.31.49,1.51.89,3.5l-10.54-7.01.78-6.23c5.25,2.77,8.62,9.23,8.88,9.74Z"/>
  <path class="cls-1" d="M34.5,85.58c-.2-4.32-.24-8.44-.1-12.31l15.37-7.23-1.37,10.68-13.9,8.86Z"/>
  <path class="cls-1" d="M68.67,96.82c-.7,2.95-1.5,5.95-2.39,8.94l-12.9-9.71,1.32-10.54,13.97,11.31Z"/>
  <path class="cls-1" d="M38.79,119.08c-.36-1.71-1.05-5.19-1.78-9.76l7.55-2.7-1.71,13.33-4.06-.86Z"/>
  <path class="cls-1" d="M35.09,64.04c.58-4.9,1.5-9.3,2.73-13.12l14.41-4.12-1.25,9.76-15.89,7.48Z"/>
  <path class="cls-1" d="M63.67,113.87c-1.13,3.25-2.36,6.49-3.66,9.65-3.03-.61-6.51-1.33-9.81-2.02l2.03-16.23,11.44,8.6Z"/>
  <path class="cls-1" d="M51.72,201.84l16.87,7.67c-1.12,3.21-2.45,6.13-3.97,8.74l-14.77-12.64c.16-.29.32-.59.47-.9.5-.97.96-1.92,1.39-2.87Z"/>
  <path class="cls-1" d="M.22,185.3c.21-2.36.55-4.7,1.02-7.07l18.62,3.25c-.29,1.22-.54,2.4-.75,3.53l-18.89.29Z"/>
  <path class="cls-1" d="M0,193.74l18.26-.28c-.04,2.03.04,3.92.27,5.73l-17.73,4.15c-.45-3.35-.71-6.52-.8-9.6Z"/>
  <path class="cls-1" d="M59.56,225.01c-1.13,1.19-2.22,2.16-3.35,2.98-8.61,6.25-22.76,10.55-34.99,6.04-9.12-3.37-15.57-11.11-18.74-22.44l18.17-4.25c2.52,6.05,6.77,10.07,11.59,10.87,3.17.53,7.87-.09,12.82-5.62l14.51,12.42Z"/>
  <path class="cls-1" d="M3.33,170.04c.78-2.58,1.64-5.16,2.54-7.85l.95-2.85,19.71,3.83c-1.04,2.13-2.36,5.04-3.64,8.47l-.19-.15-1.29,1.7-18.07-3.15Z"/>
  <path class="cls-1" d="M57.2,178.78c.04-4.01-.41-7.37-.86-9.82l17.45,3.39c-.02,2.85-.09,6.95-.43,11.75l-16.16-5.32Z"/>
  <path class="cls-1" d="M72.47,192.68c-.41,3-.93,5.89-1.55,8.63l-16.18-7.35c.69-2.22,1.24-4.42,1.64-6.57l16.09,5.29Z"/>
  <path class="cls-1" d="M28.77,176.11c1.65-4.51,3.58-8.53,5.1-11.51l3.39.66-3.13,14.9-5.35-4.05Z"/>
  <path class="cls-1" d="M25.9,197.75l3.92,2.96-.92,4.37c-1.35-1.96-2.4-4.49-3-7.34Z"/>
  <path class="cls-1" d="M38.79,193.19l.83-3.95,8.81-2.06c-.24,1.35-.53,2.66-.87,3.95l-8.77,2.06Z"/>
  <path class="cls-1" d="M32.49,187.99l-1.03,4.91-5.82-4.41c.19-1.6.5-3.27.91-5l5.95,4.5Z"/>
  <path class="cls-1" d="M44.74,199.22s-.01.03-.02.04c-2.67,6.04-5.97,9.48-9.27,9.78l1.69-8.04,7.6-1.78Z"/>
  <path class="cls-1" d="M44.36,166.64l4.37.85c.56,4.17.75,8.14.56,12.06l-8.04,1.88,3.11-14.79Z"/>
</svg>