<?xml version="1.0" encoding="UTF-8"?>
<svg id="Layer_1" data-name="Layer 1" xmlns="http://www.w3.org/2000/svg" viewBox="0 0 222.74 135.97">
  <defs>
    <style>
      .cls-1 {
        fill: #fff;
      }
    </style>
  </defs>
  <path class="cls-1" d="M126.29,100.48c7.99,2.78,14.07,4.88,21.6,6.51l-12.45-36.28c-.63-2.08-1.71-4.05-3.36-5.69h0s-26.92-28.08-26.92-28.08l35.89-10.53c7-2.94,10.29-11,7.35-18-2.94-6.99-11-10.28-18-7.34l-57.32,15.81c-4.25,1.78-7.29,5.53-8.17,10.03-.88,4.51,1.6,8.32,3.78,12.37,4.21,7.79,14.95,21.72,22.53,33.04l-26.43,12.72c14.57.81,28.65,4.55,46.98,10.51,5.7,1.85,10.38,3.48,14.52,4.93Z"/>
  <path class="cls-1" d="M178.61,108.88c14.19-1.42,24.52-14.07,23.1-28.25-1.42-14.18-14.07-24.52-28.25-23.1-14.19,1.42-24.52,14.07-23.1,28.26,1.42,14.17,14.07,24.52,28.25,23.1Z"/>
  <path class="cls-1" d="M221.95,106.44c-.61-.9-3.08-2.91-5.67-.78-10.5,8.63-24.66,13.15-42.29,13.15-25.92,0-49.55-10.25-62.03-14.31-20.88-6.8-36.28-10.72-53.16-10.72-31.67,0-49.41,14.01-56.66,21.41-1.7,1.74-2.52,3.28-1.97,5.09.53,1.75,2.17,3.36,3.86,2.97,5.51-1.28,25.81-11.42,52.5-11.42,7.52,0,14.7.62,22.58,2.05,8.81,1.59,18.5,4.17,30.51,8.11,15.16,4.96,35.71,13.09,59.53,13.09,21.52,0,40.09-7.58,50.98-21.19,1.41-1.76,3.87-4.42,1.82-7.44Z"/>
  <path class="cls-1" d="M102.79,134.34c.17-.92-.3-1.87-1.12-2.23-.2-.09-20.43-8.9-45.82-8.9-5.25,0-10.35.39-15.31,1.13-9.18,1.36-17.84,3.95-25.85,7.8-.8.39-1.25,1.33-1.07,2.23.18.93.96,1.6,1.86,1.6h85.46c.91,0,1.69-.68,1.86-1.63Z"/>
</svg>